<?xml version="1.0" encoding="UTF-8"?>
<svg width="357px" height="204px" viewBox="0 0 357 204" version="1.1" xmlns="http://www.w3.org/2000/svg" xmlns:xlink="http://www.w3.org/1999/xlink">
    <title>empty</title>
    <g id="Design" stroke="none" stroke-width="1" fill="none" fill-rule="evenodd">
        <g id="desktop/-no-results" transform="translate(-542.000000, -526.000000)" fill-rule="nonzero">
            <g id="empty" transform="translate(542.000000, 526.000000)">
                <path d="M262.072007,42.9080012 L262.072007,160.038004 L248.472007,160.038004 L248.472007,117.300003 L232.968007,117.300003 C230.785805,117.300003 228.692981,116.433127 227.149932,114.890078 C225.606882,113.347028 224.740006,111.254204 224.740006,109.072003 L224.740006,74.6300021 C224.940114,70.2264999 228.56846,66.7592915 232.976507,66.7592915 C237.384553,66.7592915 241.012899,70.2264999 241.213007,74.6300021 L241.213007,100.793003 L248.472007,100.793003 L248.472007,56.4740016 C248.490752,48.97621 254.574192,42.9080012 262.072007,42.9080012 Z" id="Path" fill="#D6E9F7" opacity="0.25"></path>
                <path d="M153.255004,1.12200003 L153.255004,160.293004 L136.000004,160.293004 L136.000004,120.275003 L117.895003,120.275003 C114.856313,120.275034 111.942818,119.064439 109.79893,116.91098 C107.655043,114.757521 106.457437,111.838663 106.470889,108.800003 L106.470889,75.3100021 C106.470889,69.000701 111.585702,63.8860018 117.895003,63.8860018 C124.204304,63.8860018 129.319004,69.000701 129.319004,75.3100021 L129.319004,97.4100027 L136.000004,97.4100027 L136.000004,19.0400005 C135.993401,9.39740204 143.619007,1.4787923 153.255004,1.12200003 Z" id="Path" fill="#D6E9F7" opacity="0.25"></path>
                <path d="M172.516005,160.888005 L134.929004,160.888005 L134.929004,120.870003 L117.691003,120.870003 C110.909505,120.87001 105.409383,115.377495 105.400003,108.596003 L105.400003,75.0550021 C105.409367,68.2801414 110.899143,62.7903658 117.674003,62.7810018 C124.444994,62.7996805 129.929325,68.284011 129.948004,75.0550021 L129.948004,96.3220027 L134.912004,96.3220027 L134.912004,18.7850005 C135.217591,8.62565187 143.541561,0.548297946 153.705504,0.548297946 C163.869448,0.548297946 172.193417,8.62565187 172.499005,18.7850005 L172.499005,82.4330023 L176.120005,82.4330023 L176.120005,45.5600013 C176.119998,38.7878914 181.604902,33.2953806 188.377005,33.2860009 C195.128071,33.3326001 200.581517,38.8087997 200.600006,45.5600013 L200.600006,94.6900027 C200.600006,97.9452699 199.306856,101.06721 197.005034,103.369032 C194.703213,105.670853 191.581273,106.964003 188.326005,106.964003 L172.448005,106.964003 L172.516005,160.888005 Z M136.629004,159.188004 L170.816005,159.188004 L170.816005,105.264003 L188.394005,105.264003 C194.20341,105.217384 198.890867,100.499587 198.900006,94.6900027 L198.900006,45.5600013 C198.890646,39.7240236 194.161983,34.995361 188.326005,34.986001 C182.492786,34.9953792 177.768997,39.7267746 177.769005,45.5600013 L177.769005,84.1330024 L170.748005,84.1330024 L170.748005,18.7850005 C170.456868,9.55431407 162.889781,2.22213061 153.654504,2.22213061 C144.419228,2.22213061 136.852141,9.55431407 136.561004,18.7850005 L136.561004,98.0220027 L128.265004,98.0220027 L128.265004,75.0550021 C128.265004,71.2772755 126.249611,67.7865122 122.978004,65.8976489 C119.706396,64.0087855 115.67561,64.0087855 112.404003,65.8976489 C109.132396,67.7865122 107.117003,71.2772755 107.117003,75.0550021 L107.117003,108.596003 C107.126363,114.431981 111.855026,119.160643 117.691003,119.170003 L136.629004,119.170003 L136.629004,159.188004 Z" id="Shape" fill="#193552"></path>
                <path d="M276.488008,160.888005 L247.588007,160.888005 L247.588007,118.099003 L232.934007,118.099003 C227.920365,118.099003 223.856006,114.034644 223.856006,109.021003 L223.856006,74.6300021 C224.066512,69.7644156 228.072368,65.9281211 232.942507,65.9281211 C237.812645,65.9281211 241.818502,69.7644156 242.029007,74.6300021 L242.029007,99.9430028 L247.588007,99.9430028 L247.588007,56.4740016 C247.588007,48.5122644 254.04227,42.0580012 262.004007,42.0580012 C269.957989,42.0766945 276.401314,48.5200203 276.420008,56.4740016 L276.420008,125.154004 L282.200008,125.154004 L282.200008,99.8580028 C282.410513,94.9924163 286.41637,91.1561218 291.286508,91.1561218 C296.156646,91.1561218 300.162503,94.9924163 300.373008,99.8580028 L300.373008,134.300004 C300.373008,136.710587 299.41425,139.022192 297.708116,140.725137 C296.001982,142.428082 293.688588,143.382518 291.278008,143.378004 L276.522008,143.378004 L276.488008,160.888005 Z M249.288007,159.188004 L274.788008,159.188004 L274.788008,141.627004 L291.244008,141.627004 C295.301745,141.627176 298.601696,138.357569 298.639008,134.300004 L298.639008,99.8580028 C298.769702,97.1345178 297.391125,94.5600749 295.051895,93.1591986 C292.712665,91.7583223 289.792351,91.7583223 287.453121,93.1591986 C285.113891,94.5600749 283.735314,97.1345178 283.866008,99.8580028 L283.866008,126.854004 L274.788008,126.854004 L274.788008,56.4740016 C274.778643,49.4550312 269.090978,43.7673661 262.072007,43.7580012 C255.053037,43.7673661 249.365372,49.4550312 249.356007,56.4740016 L249.356007,101.643003 L240.397007,101.643003 L240.397007,74.6300021 C240.387633,70.5524967 237.079523,67.2519911 233.002007,67.2520019 C228.92725,67.2520019 225.624006,70.5552451 225.624006,74.6300021 L225.624006,109.021003 C225.624006,113.09576 228.92725,116.399003 233.002007,116.399003 L249.356007,116.399003 L249.288007,159.188004 Z" id="Shape" fill="#193552"></path>
                <rect id="Rectangle" fill="#193552" x="171.666005" y="159.188004" width="76.8400022" height="1.70000005"></rect>
                <path d="M80.5800023,182.172005 L39.8650011,182.172005 C39.3955591,182.172005 39.0150011,181.791447 39.0150011,181.322005 C39.0150011,180.852563 39.3955591,180.472005 39.8650011,180.472005 L80.6650023,180.472005 C81.1344443,180.472005 81.515013,180.852563 81.515013,181.322005 C81.5162105,181.56297 81.4150865,181.793124 81.2367848,181.955216 C81.0584832,182.117308 80.8197617,182.196105 80.5800023,182.172005 Z" id="Path" fill="#193552"></path>
                <rect id="Rectangle" fill="#193552" x="275.638008" y="159.188004" width="23.8510007" height="1.70000005"></rect>
                <path d="M135.779004,160.888005 L106.267003,160.888005 C105.797561,160.888005 105.417003,160.507447 105.417003,160.038004 C105.417003,159.568562 105.797561,159.188004 106.267003,159.188004 L135.779004,159.188004 C136.248446,159.188004 136.629004,159.568562 136.629004,160.038004 C136.629004,160.507447 136.248446,160.888005 135.779004,160.888005 Z" id="Path" fill="#193552"></path>
                <path d="M223.142006,203.065006 L188.955005,203.065006 L189.074005,202.096006 C189.074005,201.909006 191.624005,183.532005 206.074006,183.532005 C209.946775,183.477957 213.673841,185.006853 216.393006,187.765005 C217.88311,189.25664 219.123015,190.97873 220.065006,192.865005 C221.53168,195.748741 222.530163,198.84748 223.023006,202.045006 L223.142006,203.065006 Z M190.927005,201.365006 L221.153006,201.365006 C220.637159,198.701083 219.756183,196.121084 218.535006,193.698005 C217.658266,191.953063 216.51072,190.357974 215.135006,188.972005 C212.729269,186.532713 209.431673,185.181743 206.006006,185.232005 C194.905005,185.300005 191.641005,197.761006 190.927005,201.365006 L190.927005,201.365006 Z" id="Shape" fill="#193552"></path>
                <path d="M231.200006,194.157005 L218.756006,194.157005 L218.518006,193.681005 C217.636844,191.94384 216.489677,190.355013 215.118006,188.972005 L214.642006,188.513005 L214.965006,187.952005 C216.328559,185.256983 219.08473,183.550782 222.105006,183.532005 C228.174006,183.532005 230.605006,189.856005 231.013006,193.188005 L231.200006,194.157005 Z M219.793006,192.457005 L229.211006,192.457005 C228.718006,190.281005 227.052006,185.231994 222.156006,185.231994 C219.971807,185.227918 217.948164,186.378744 216.835006,188.258005 C217.998814,189.527394 218.998326,190.938134 219.810006,192.457005 L219.793006,192.457005 Z" id="Shape" fill="#193552"></path>
                <path d="M153.714004,46.1720013 C153.244562,46.1720013 152.864004,45.7914433 152.864004,45.3220013 L152.864004,0.850000024 C152.864004,0.380557973 153.244562,0 153.714004,0 C154.183446,0 154.564004,0.380557973 154.564004,0.850000024 L154.564004,45.3220013 C154.564004,45.7914433 154.183446,46.1720013 153.714004,46.1720013 Z" id="Path" fill="#193552"></path>
                <path d="M153.000004,63.6990032 C152.530562,63.6990032 152.150004,63.3184438 152.150004,62.8490018 L152.150004,53.0910015 C152.150004,52.6215594 152.530562,52.2410015 153.000004,52.2410015 C153.469446,52.2410015 153.850004,52.6215594 153.850004,53.0910015 L153.850004,62.9000018 C153.822991,63.3494171 153.45023,63.6998129 153.000004,63.6990032 Z" id="Path" fill="#193552"></path>
                <path d="M153.000004,160.888005 C152.530562,160.888005 152.150004,160.507447 152.150004,160.038004 L152.150004,71.876002 C152.150004,71.40656 152.530562,71.026002 153.000004,71.026002 C153.469446,71.026002 153.850004,71.40656 153.850004,71.876002 L153.850004,160.038004 C153.850004,160.507447 153.469446,160.888005 153.000004,160.888005 Z" id="Path" fill="#193552"></path>
                <path d="M262.072007,107.865014 C261.602565,107.865014 261.222007,107.484445 261.222007,107.015003 L261.222007,42.9080012 C261.222007,42.4385592 261.602565,42.0580012 262.072007,42.0580012 C262.541449,42.0580012 262.922007,42.4385592 262.922007,42.9080012 L262.922007,107.100003 C262.878197,107.535969 262.510164,107.867199 262.072007,107.865014 Z" id="Path" fill="#193552"></path>
                <path d="M262.123007,122.791003 C261.653565,122.791003 261.273007,122.410445 261.273007,121.941003 L261.273007,114.223003 C261.282052,113.757359 261.657363,113.382047 262.123007,113.373003 C262.592449,113.373003 262.973007,113.753561 262.973007,114.223003 L262.973007,121.941003 C262.973007,122.410445 262.592449,122.791003 262.123007,122.791003 L262.123007,122.791003 Z" id="Path" fill="#193552"></path>
                <path d="M262.123007,160.888005 C261.653565,160.888005 261.273007,160.507447 261.273007,160.038004 L261.273007,129.438004 C261.273007,128.968562 261.653565,128.588004 262.123007,128.588004 C262.592449,128.588004 262.973007,128.968562 262.973007,129.438004 L262.973007,160.038004 C262.973007,160.507447 262.592449,160.888005 262.123007,160.888005 Z" id="Path" fill="#193552"></path>
                <path d="M106.267003,75.9050021 L103.700003,75.9050021 C103.230561,75.9050021 102.850003,75.5244442 102.850003,75.0550021 C102.850003,74.5855601 103.230561,74.2050021 103.700003,74.2050021 L106.216003,74.2050021 C106.685445,74.2050021 107.066003,74.5855601 107.066003,75.0550021 C107.066003,75.5244442 106.685445,75.9050021 106.216003,75.9050021 L106.267003,75.9050021 Z" id="Path" fill="#193552"></path>
                <path d="M106.267003,82.7900023 L103.700003,82.7900023 C103.230561,82.7900023 102.850003,82.4094443 102.850003,81.9400023 C102.850003,81.4705602 103.230561,81.0900023 103.700003,81.0900023 L106.216003,81.0900023 C106.685445,81.0900023 107.066003,81.4705602 107.066003,81.9400023 C107.05861,82.3869426 106.712632,82.7550045 106.267003,82.7900023 L106.267003,82.7900023 Z" id="Path" fill="#193552"></path>
                <path d="M106.267003,89.6580025 L103.700003,89.6580025 C103.230561,89.6580025 102.850003,89.2774445 102.850003,88.8080025 C102.850003,88.3385604 103.230561,87.9580025 103.700003,87.9580025 L106.216003,87.9580025 C106.685445,87.9580025 107.066003,88.3385604 107.066003,88.8080025 C107.066003,89.2774445 106.685445,89.6580025 106.216003,89.6580025 L106.267003,89.6580025 Z" id="Path" fill="#193552"></path>
                <path d="M106.267003,96.5430027 L103.700003,96.5430027 C103.230561,96.5430027 102.850003,96.1624447 102.850003,95.6930027 C102.850003,95.2235606 103.230561,94.8430027 103.700003,94.8430027 L106.216003,94.8430027 C106.685445,94.8430027 107.066003,95.2235606 107.066003,95.6930027 C107.05861,96.139943 106.712632,96.5080049 106.267003,96.5430027 L106.267003,96.5430027 Z" id="Path" fill="#193552"></path>
                <path d="M106.267003,103.411003 L103.700003,103.411003 C103.230561,103.411003 102.850003,103.030445 102.850003,102.561003 C102.850003,102.091561 103.230561,101.711003 103.700003,101.711003 L106.216003,101.711003 C106.685445,101.711003 107.066003,102.091561 107.066003,102.561003 C107.066003,103.030445 106.685445,103.411003 106.216003,103.411003 L106.267003,103.411003 Z" id="Path" fill="#193552"></path>
                <path d="M202.300006,49.9460014 L199.784006,49.9460014 C199.314564,49.9460014 198.934006,49.5654434 198.934006,49.0960014 C198.934006,48.6265593 199.314564,48.2460014 199.784006,48.2460014 L202.300006,48.2460014 C202.76565,48.2550455 203.140962,48.630357 203.150006,49.0960014 C203.150006,49.5654434 202.769448,49.9460014 202.300006,49.9460014 Z" id="Path" fill="#193552"></path>
                <path d="M202.300006,56.8310016 L199.784006,56.8310016 C199.314564,56.8310016 198.934006,56.4504436 198.934006,55.9810016 C198.934006,55.5115595 199.314564,55.1310015 199.784006,55.1310015 L202.300006,55.1310015 C202.769448,55.1310015 203.150006,55.5115595 203.150006,55.9810016 C203.150006,56.4504436 202.769448,56.8310016 202.300006,56.8310016 Z" id="Path" fill="#193552"></path>
                <path d="M202.300006,63.6990018 L199.784006,63.6990018 C199.314564,63.6990018 198.934006,63.3184438 198.934006,62.8490018 C198.934006,62.3795597 199.314564,61.9990017 199.784006,61.9990017 L202.300006,61.9990017 C202.76565,62.0080459 203.140962,62.3833574 203.150006,62.8490018 C203.150006,63.3184438 202.769448,63.6990018 202.300006,63.6990018 Z" id="Path" fill="#193552"></path>
                <path d="M202.300006,70.584002 L199.784006,70.584002 C199.314564,70.584002 198.934006,70.203444 198.934006,69.734002 C198.934006,69.2645599 199.314564,68.8840019 199.784006,68.8840019 L202.300006,68.8840019 C202.769448,68.8840019 203.150006,69.2645599 203.150006,69.734002 C203.140962,70.1996463 202.76565,70.5749578 202.300006,70.584002 L202.300006,70.584002 Z" id="Path" fill="#193552"></path>
                <path d="M202.300006,77.4520022 L199.784006,77.4520022 C199.314564,77.4520022 198.934006,77.0714442 198.934006,76.6020021 C198.934006,76.1325601 199.314564,75.7520021 199.784006,75.7520021 L202.300006,75.7520021 C202.76565,75.7610463 203.140962,76.1363578 203.150006,76.6020021 C203.150006,77.0714442 202.769448,77.4520022 202.300006,77.4520022 Z" id="Path" fill="#193552"></path>
                <path d="M174.471005,122.791003 L171.955005,122.791003 C171.485563,122.791003 171.105005,122.410445 171.105005,121.941003 C171.114049,121.475359 171.48936,121.100048 171.955005,121.091003 L174.471005,121.091003 C174.940447,121.091003 175.321005,121.471561 175.321005,121.941003 C175.321005,122.410445 174.940447,122.791003 174.471005,122.791003 L174.471005,122.791003 Z" id="Path" fill="#193552"></path>
                <path d="M174.471005,129.676004 L171.955005,129.676004 C171.485563,129.676004 171.105005,129.295446 171.105005,128.826004 C171.105005,128.356562 171.485563,127.976004 171.955005,127.976004 L174.471005,127.976004 C174.940447,127.976004 175.321005,128.356562 175.321005,128.826004 C175.321005,129.295446 174.940447,129.676004 174.471005,129.676004 Z" id="Path" fill="#193552"></path>
                <path d="M174.471005,136.544004 L171.955005,136.544004 C171.485563,136.544004 171.105005,136.163446 171.105005,135.694004 C171.114049,135.228359 171.48936,134.853048 171.955005,134.844004 L174.471005,134.844004 C174.940447,134.844004 175.321005,135.224562 175.321005,135.694004 C175.321005,136.163446 174.940447,136.544004 174.471005,136.544004 Z" id="Path" fill="#193552"></path>
                <path d="M174.471005,143.429004 L171.955005,143.429004 C171.48936,143.41996 171.114049,143.044648 171.105005,142.579004 C171.105005,142.109562 171.485563,141.729004 171.955005,141.729004 L174.471005,141.729004 C174.940447,141.729004 175.321005,142.109562 175.321005,142.579004 C175.321005,143.048446 174.940447,143.429004 174.471005,143.429004 Z" id="Path" fill="#193552"></path>
                <path d="M174.471005,150.297004 L171.955005,150.297004 C171.485563,150.297004 171.105005,149.916446 171.105005,149.447004 C171.114049,148.98136 171.48936,148.606048 171.955005,148.597004 L174.471005,148.597004 C174.940447,148.597004 175.321005,148.977562 175.321005,149.447004 C175.321005,149.916446 174.940447,150.297004 174.471005,150.297004 Z" id="Path" fill="#193552"></path>
                <path d="M224.774006,78.6080022 L222.258006,78.6080022 C221.788564,78.6080022 221.408006,78.2274442 221.408006,77.7580022 C221.408006,77.2885601 221.788564,76.9080022 222.258006,76.9080022 L224.774006,76.9080022 C225.239651,76.9170463 225.614962,77.2923578 225.624006,77.7580022 C225.624006,78.2274442 225.243448,78.6080022 224.774006,78.6080022 Z" id="Path" fill="#193552"></path>
                <path d="M224.774006,85.4930024 L222.258006,85.4930024 C221.788564,85.4930024 221.408006,85.1124444 221.408006,84.6430024 C221.408006,84.1735603 221.788564,83.7930024 222.258006,83.7930024 L224.774006,83.7930024 C225.243448,83.7930024 225.624006,84.1735603 225.624006,84.6430024 C225.614962,85.1086468 225.239651,85.4839582 224.774006,85.4930024 L224.774006,85.4930024 Z" id="Path" fill="#193552"></path>
                <path d="M224.774006,92.3610026 L222.258006,92.3610026 C221.788564,92.3610026 221.408006,91.9804446 221.408006,91.5110026 C221.408006,91.0415605 221.788564,90.6610025 222.258006,90.6610025 L224.774006,90.6610025 C225.239651,90.6700467 225.614962,91.0453582 225.624006,91.5110026 C225.624006,91.9804446 225.243448,92.3610026 224.774006,92.3610026 Z" id="Path" fill="#193552"></path>
                <path d="M224.774006,99.2460028 L222.258006,99.2460028 C221.788564,99.2460028 221.408006,98.8654448 221.408006,98.3960028 C221.408006,97.9265607 221.788564,97.5460027 222.258006,97.5460027 L224.774006,97.5460027 C225.243448,97.5460027 225.624006,97.9265607 225.624006,98.3960028 C225.614962,98.8616471 225.239651,99.2369586 224.774006,99.2460028 L224.774006,99.2460028 Z" id="Path" fill="#193552"></path>
                <path d="M224.774006,106.114003 L222.258006,106.114003 C221.788564,106.114003 221.408006,105.733445 221.408006,105.264003 C221.408006,104.794561 221.788564,104.414003 222.258006,104.414003 L224.774006,104.414003 C225.239651,104.423047 225.614962,104.798359 225.624006,105.264003 C225.624006,105.733445 225.243448,106.114003 224.774006,106.114003 Z" id="Path" fill="#193552"></path>
                <path d="M302.005008,101.320003 L299.489008,101.320003 C299.019566,101.320003 298.639008,100.939445 298.639008,100.470003 C298.639008,100.000561 299.019566,99.6200028 299.489008,99.6200028 L302.005008,99.6200028 C302.470653,99.629047 302.845964,100.004358 302.855008,100.470003 C302.855008,100.939445 302.474451,101.320003 302.005008,101.320003 L302.005008,101.320003 Z" id="Path" fill="#193552"></path>
                <path d="M302.005008,108.205003 L299.489008,108.205003 C299.019566,108.205003 298.639008,107.824445 298.639008,107.355003 C298.639008,106.885561 299.019566,106.505003 299.489008,106.505003 L302.005008,106.505003 C302.474451,106.505003 302.855008,106.885561 302.855008,107.355003 C302.845964,107.820647 302.470653,108.195959 302.005008,108.205003 Z" id="Path" fill="#193552"></path>
                <path d="M302.005008,115.073003 L299.489008,115.073003 C299.019566,115.073003 298.639008,114.692445 298.639008,114.223003 C298.639008,113.753561 299.019566,113.373003 299.489008,113.373003 L302.005008,113.373003 C302.470653,113.382047 302.845964,113.757359 302.855008,114.223003 C302.855008,114.448437 302.765455,114.664638 302.606049,114.824044 C302.446643,114.98345 302.230442,115.073003 302.005008,115.073003 Z" id="Path" fill="#193552"></path>
                <path d="M302.005008,121.958003 L299.489008,121.958003 C299.019566,121.958003 298.639008,121.577445 298.639008,121.108003 C298.639008,120.638561 299.019566,120.258003 299.489008,120.258003 L302.005008,120.258003 C302.474451,120.258003 302.855008,120.638561 302.855008,121.108003 C302.845964,121.573648 302.470653,121.948959 302.005008,121.958003 Z" id="Path" fill="#193552"></path>
                <path d="M302.005008,128.826004 L299.489008,128.826004 C299.019566,128.826004 298.639008,128.445446 298.639008,127.976004 C298.639008,127.506562 299.019566,127.126004 299.489008,127.126004 L302.005008,127.126004 C302.474451,127.126004 302.855008,127.506562 302.855008,127.976004 C302.855008,128.445446 302.474451,128.826004 302.005008,128.826004 Z" id="Path" fill="#193552"></path>
                <path d="M278.154008,60.9280017 L275.638008,60.9280017 C275.168566,60.9280017 274.788008,60.5474437 274.788008,60.0780017 C274.788008,59.6085596 275.168566,59.2280017 275.638008,59.2280017 L278.154008,59.2280017 C278.62345,59.2280017 279.004008,59.6085596 279.004008,60.0780017 C279.004008,60.5474437 278.62345,60.9280017 278.154008,60.9280017 Z" id="Path" fill="#193552"></path>
                <path d="M278.154008,67.8130019 L275.638008,67.8130019 C275.168566,67.8130019 274.788008,67.4324439 274.788008,66.9630019 C274.788008,66.4935598 275.168566,66.1130019 275.638008,66.1130019 L278.154008,66.1130019 C278.62345,66.1130019 279.004008,66.4935598 279.004008,66.9630019 C278.994964,67.4286463 278.619652,67.8039577 278.154008,67.8130019 L278.154008,67.8130019 Z" id="Path" fill="#193552"></path>
                <path d="M278.154008,74.6810021 L275.638008,74.6810021 C275.168566,74.6810021 274.788008,74.3004441 274.788008,73.8310021 C274.788008,73.36156 275.168566,72.981002 275.638008,72.981002 L278.154008,72.981002 C278.62345,72.981002 279.004008,73.36156 279.004008,73.8310021 C279.004008,74.3004441 278.62345,74.6810021 278.154008,74.6810021 Z" id="Path" fill="#193552"></path>
                <path d="M278.154008,81.6000023 L275.638008,81.6000023 C275.168566,81.6000023 274.788008,81.2194443 274.788008,80.7500023 C274.788008,80.2805602 275.168566,79.9000022 275.638008,79.9000022 L278.154008,79.9000022 C278.62345,79.9000022 279.004008,80.2805602 279.004008,80.7500023 C278.994964,81.2156466 278.619652,81.5909581 278.154008,81.6000023 Z" id="Path" fill="#193552"></path>
                <path d="M278.154008,88.4000025 L275.638008,88.4000025 C275.168566,88.4000025 274.788008,88.0194445 274.788008,87.5500025 C274.788008,87.0805604 275.168566,86.7000024 275.638008,86.7000024 L278.154008,86.7000024 C278.62345,86.7000024 279.004008,87.0805604 279.004008,87.5500025 C279.004008,88.0194445 278.62345,88.4000025 278.154008,88.4000025 Z" id="Path" fill="#193552"></path>
                <path d="M248.523007,57.9870016 L246.007007,57.9870016 C245.537565,57.9870016 245.157007,57.6064437 245.157007,57.1370016 C245.157007,56.6675596 245.537565,56.2870016 246.007007,56.2870016 L248.523007,56.2870016 C248.992449,56.2870016 249.373007,56.6675596 249.373007,57.1370016 C249.363963,57.602646 248.988651,57.9779574 248.523007,57.9870016 L248.523007,57.9870016 Z" id="Path" fill="#193552"></path>
                <path d="M248.523007,64.8550018 L246.007007,64.8550018 C245.537565,64.8550018 245.157007,64.4744438 245.157007,64.0050018 C245.157007,63.5355597 245.537565,63.1550018 246.007007,63.1550018 L248.523007,63.1550018 C248.988651,63.164046 249.363963,63.5393574 249.373007,64.0050018 C249.373007,64.4744438 248.992449,64.8550018 248.523007,64.8550018 Z" id="Path" fill="#193552"></path>
                <path d="M248.523007,71.740002 L246.007007,71.740002 C245.537565,71.740002 245.157007,71.359444 245.157007,70.890002 C245.157007,70.4205599 245.537565,70.040002 246.007007,70.040002 L248.523007,70.040002 C248.992449,70.040002 249.373007,70.4205599 249.373007,70.890002 C249.363963,71.3556464 248.988651,71.7309578 248.523007,71.740002 L248.523007,71.740002 Z" id="Path" fill="#193552"></path>
                <path d="M248.523007,78.6080022 L246.007007,78.6080022 C245.537565,78.6080022 245.157007,78.2274442 245.157007,77.7580022 C245.157007,77.2885601 245.537565,76.9080022 246.007007,76.9080022 L248.523007,76.9080022 C248.988651,76.9170463 249.363963,77.2923578 249.373007,77.7580022 C249.373007,78.2274442 248.992449,78.6080022 248.523007,78.6080022 Z" id="Path" fill="#193552"></path>
                <path d="M248.523007,85.4930024 L246.007007,85.4930024 C245.537565,85.4930024 245.157007,85.1124444 245.157007,84.6430024 C245.157007,84.1735603 245.537565,83.7930024 246.007007,83.7930024 L248.523007,83.7930024 C248.992449,83.7930024 249.373007,84.1735603 249.373007,84.6430024 C249.363963,85.1086468 248.988651,85.4839582 248.523007,85.4930024 L248.523007,85.4930024 Z" id="Path" fill="#193552"></path>
                <path d="M248.523007,122.791003 L246.007007,122.791003 C245.537565,122.791003 245.157007,122.410445 245.157007,121.941003 C245.157007,121.471561 245.537565,121.091003 246.007007,121.091003 L248.523007,121.091003 C248.988651,121.100048 249.363963,121.475359 249.373007,121.941003 C249.373007,122.410445 248.992449,122.791003 248.523007,122.791003 Z" id="Path" fill="#193552"></path>
                <path d="M248.523007,129.676004 L246.007007,129.676004 C245.537565,129.676004 245.157007,129.295446 245.157007,128.826004 C245.157007,128.356562 245.537565,127.976004 246.007007,127.976004 L248.523007,127.976004 C248.992449,127.976004 249.373007,128.356562 249.373007,128.826004 C249.373007,129.295446 248.992449,129.676004 248.523007,129.676004 Z" id="Path" fill="#193552"></path>
                <path d="M248.523007,136.544004 L246.007007,136.544004 C245.537565,136.544004 245.157007,136.163446 245.157007,135.694004 C245.157007,135.224562 245.537565,134.844004 246.007007,134.844004 L248.523007,134.844004 C248.988651,134.853048 249.363963,135.228359 249.373007,135.694004 C249.373007,136.163446 248.992449,136.544004 248.523007,136.544004 Z" id="Path" fill="#193552"></path>
                <path d="M248.523007,143.429004 L246.007007,143.429004 C245.537565,143.429004 245.157007,143.048446 245.157007,142.579004 C245.157007,142.109562 245.537565,141.729004 246.007007,141.729004 L248.523007,141.729004 C248.992449,141.729004 249.373007,142.109562 249.373007,142.579004 C249.363963,143.044648 248.988651,143.41996 248.523007,143.429004 L248.523007,143.429004 Z" id="Path" fill="#193552"></path>
                <path d="M248.523007,150.297004 L246.007007,150.297004 C245.537565,150.297004 245.157007,149.916446 245.157007,149.447004 C245.157007,148.977562 245.537565,148.597004 246.007007,148.597004 L248.523007,148.597004 C248.988651,148.606048 249.363963,148.98136 249.373007,149.447004 C249.373007,149.672438 249.283454,149.888639 249.124048,150.048045 C248.964642,150.207451 248.748441,150.297004 248.523007,150.297004 Z" id="Path" fill="#193552"></path>
                <path d="M135.779004,20.4000006 L133.263004,20.4000006 C132.793562,20.4000006 132.413004,20.0194426 132.413004,19.5500005 C132.413004,19.0805585 132.793562,18.7000005 133.263004,18.7000005 L135.779004,18.7000005 C136.248446,18.7000005 136.629004,19.0805585 136.629004,19.5500005 C136.629004,20.0194426 136.248446,20.4000006 135.779004,20.4000006 Z" id="Path" fill="#193552"></path>
                <path d="M135.779004,27.2000008 L133.263004,27.2000008 C132.793562,27.2000008 132.413004,26.8194428 132.413004,26.3500007 C132.413004,25.8805587 132.793562,25.5000007 133.263004,25.5000007 L135.779004,25.5000007 C136.244648,25.5090449 136.61996,25.8843564 136.629004,26.3500007 C136.629004,26.8194428 136.248446,27.2000008 135.779004,27.2000008 Z" id="Path" fill="#193552"></path>
                <path d="M135.779004,34.153001 L133.263004,34.153001 C132.793562,34.153001 132.413004,33.772443 132.413004,33.3030009 C132.413004,32.8335589 132.793562,32.4530009 133.263004,32.4530009 L135.779004,32.4530009 C136.248446,32.4530009 136.629004,32.8335589 136.629004,33.3030009 C136.629004,33.772443 136.248446,34.153001 135.779004,34.153001 Z" id="Path" fill="#193552"></path>
                <path d="M135.779004,41.0210012 L133.263004,41.0210012 C132.793562,41.0210012 132.413004,40.6404432 132.413004,40.1710011 C132.413004,39.7015591 132.793562,39.3210011 133.263004,39.3210011 L135.779004,39.3210011 C136.244648,39.3300453 136.61996,39.7053567 136.629004,40.1710011 C136.629004,40.6404432 136.248446,41.0210012 135.779004,41.0210012 Z" id="Path" fill="#193552"></path>
                <path d="M135.779004,47.9060013 L133.263004,47.9060013 C132.793562,47.9060013 132.413004,47.5254434 132.413004,47.0560013 C132.413004,46.5865593 132.793562,46.2060013 133.263004,46.2060013 L135.779004,46.2060013 C136.248446,46.2060013 136.629004,46.5865593 136.629004,47.0560013 C136.629004,47.5254434 136.248446,47.9060013 135.779004,47.9060013 Z" id="Path" fill="#193552"></path>
                <path d="M174.182005,36.193001 L171.700005,36.193001 C171.230563,36.193001 170.850005,35.812443 170.850005,35.343001 C170.850005,34.8735589 171.230563,34.493001 171.700005,34.493001 L174.216005,34.493001 C174.681649,34.5020451 175.056961,34.8773566 175.066005,35.343001 C175.06619,35.5744515 174.971985,35.795969 174.805148,35.9563894 C174.63831,36.1168098 174.41327,36.2022591 174.182005,36.193001 L174.182005,36.193001 Z" id="Path" fill="#193552"></path>
                <path d="M174.182005,43.0780012 L171.700005,43.0780012 C171.230563,43.0780012 170.850005,42.6974432 170.850005,42.2280012 C170.850005,41.7585591 171.230563,41.3780012 171.700005,41.3780012 L174.216005,41.3780012 C174.685447,41.3780012 175.066005,41.7585591 175.066005,42.2280012 C175.066005,42.6974432 174.685447,43.0780012 174.216005,43.0780012 L174.182005,43.0780012 Z" id="Path" fill="#193552"></path>
                <path d="M174.182005,49.9460014 L171.700005,49.9460014 C171.230563,49.9460014 170.850005,49.5654434 170.850005,49.0960014 C170.850005,48.6265593 171.230563,48.2460014 171.700005,48.2460014 L174.216005,48.2460014 C174.681649,48.2550455 175.056961,48.630357 175.066005,49.0960014 C175.06619,49.3274518 174.971985,49.5489694 174.805148,49.7093898 C174.63831,49.8698102 174.41327,49.9552595 174.182005,49.9460014 Z" id="Path" fill="#193552"></path>
                <path d="M174.182005,56.8310016 L171.700005,56.8310016 C171.230563,56.8310016 170.850005,56.4504436 170.850005,55.9810016 C170.850005,55.5115595 171.230563,55.1310015 171.700005,55.1310015 L174.216005,55.1310015 C174.685447,55.1310015 175.066005,55.5115595 175.066005,55.9810016 C175.066005,56.4504436 174.685447,56.8310016 174.216005,56.8310016 L174.182005,56.8310016 Z" id="Path" fill="#193552"></path>
                <path d="M174.182005,63.6990018 L171.700005,63.6990018 C171.230563,63.6990018 170.850005,63.3184438 170.850005,62.8490018 C170.850005,62.3795597 171.230563,61.9990017 171.700005,61.9990017 L174.216005,61.9990017 C174.681649,62.0080459 175.056961,62.3833574 175.066005,62.8490018 C175.06619,63.0804522 174.971985,63.3019698 174.805148,63.4623902 C174.63831,63.6228106 174.41327,63.7082599 174.182005,63.6990018 Z" id="Path" fill="#193552"></path>
                <path d="M23.2050007,108.120003 C22.7355586,108.120003 22.3550006,107.739445 22.3550006,107.270003 C22.3640448,106.804359 22.7393563,106.429047 23.2050007,106.420003 C26.9605371,106.420003 30.0050008,103.375539 30.0050008,99.6200028 C30.0050008,95.8644664 26.9605371,92.8200026 23.2050007,92.8200026 C21.3368407,92.8078966 19.5489495,93.5785393 18.2750005,94.9450027 C18.1183224,95.1049116 17.903873,95.1950241 17.6800005,95.1950241 C17.456128,95.1950241 17.2416786,95.1049116 17.0850005,94.9450027 C16.761029,94.6144857 16.761029,94.0855196 17.0850005,93.7550026 C19.7242997,90.878387 23.9837524,90.1694666 27.4125007,92.0361489 C30.8412489,93.9028313 32.5576046,97.865107 31.5739893,101.643112 C30.5903739,105.421116 27.15972,108.043352 23.2560007,108.001003 L23.2050007,108.120003 Z" id="Path" fill="#193552"></path>
                <path d="M49.3000014,116.382005 C48.8305593,116.382005 48.4500014,116.001445 48.4500014,115.532003 C48.4590455,115.066359 48.834357,114.691047 49.3000014,114.682003 C54.9288252,114.68023 59.8157347,110.803657 61.0983242,105.322907 C62.3809136,99.8421563 59.7216326,94.1996456 54.6780999,91.7003581 C49.6345672,89.2010706 43.5341334,90.5027658 39.9500011,94.8430027 C39.6469776,95.2043093 39.1107481,95.257177 38.7430011,94.9620027 C38.5689244,94.8195156 38.4598777,94.6126799 38.4406661,94.3885456 C38.4214546,94.1644114 38.4937119,93.9420354 38.6410011,93.7720026 C42.7246059,88.8160783 49.6837502,87.3256685 55.438861,90.1744777 C61.1939718,93.0232869 64.2287772,99.4607528 62.7642207,105.713119 C61.2996642,111.965486 55.7216057,116.385472 49.3000014,116.382005 L49.3000014,116.382005 Z" id="Path" fill="#193552"></path>
                <path d="M23.2050007,108.120003 L0.850000024,108.120003 C0.380557973,108.120003 0,107.739445 0,107.270003 C0,106.800561 0.380557973,106.420003 0.850000024,106.420003 L23.2050007,106.420003 C23.6744427,106.420003 24.0550007,106.800561 24.0550007,107.270003 C24.0550007,107.739445 23.6744427,108.120003 23.2050007,108.120003 Z" id="Path" fill="#193552"></path>
                <path d="M49.3000014,116.382003 L27.6420008,116.382003 C27.1725587,116.382003 26.7920008,116.001445 26.7920008,115.532003 C26.7920008,115.062561 27.1725587,114.682003 27.6420008,114.682003 L49.3000014,114.682003 C49.7694434,114.682003 50.1500014,115.062561 50.1500014,115.532003 C50.1500014,116.001445 49.7694434,116.382003 49.3000014,116.382003 Z" id="Path" fill="#193552"></path>
                <path d="M317.101009,35.088001 C316.631567,35.088001 316.251009,34.707443 316.251009,34.238001 C316.251009,33.7685589 316.631567,33.3880009 317.101009,33.3880009 C320.856545,33.3880009 323.901009,30.3435371 323.901009,26.5880007 C323.901009,22.8324643 320.856545,19.7880006 317.101009,19.7880006 C315.232849,19.7758945 313.444958,20.5465373 312.171009,21.9130006 C312.011407,22.0739164 311.794151,22.1644292 311.567509,22.1644292 C311.340867,22.1644292 311.12361,22.0739164 310.964009,21.9130006 C310.8041,21.7563225 310.713987,21.5418731 310.713987,21.3180006 C310.713987,21.0941281 310.8041,20.8796787 310.964009,20.7230006 C313.603308,17.846385 317.862761,17.1374645 321.291509,19.0041469 C324.720257,20.8708293 326.436613,24.8331049 325.452997,28.6111095 C324.469382,32.3891141 321.038728,35.0113496 317.135009,34.969001 L317.101009,35.088001 Z" id="Path" fill="#193552"></path>
                <path d="M343.11101,43.3500012 C342.641568,43.3500012 342.26101,42.9694432 342.26101,42.5000012 C342.26101,42.0305591 342.641568,41.6500012 343.11101,41.6500012 C348.737703,41.6403303 353.617914,37.7597638 354.894896,32.2798835 C356.171878,26.8000032 353.509821,21.161855 348.467025,18.665863 C343.424229,16.169871 337.326798,17.472407 333.744009,21.8110006 C333.603997,21.987574 333.39842,22.0998875 333.17419,22.1223104 C332.949961,22.1447334 332.726214,22.0753523 332.554009,21.9300006 C332.194809,21.6330382 332.141726,21.1022114 332.435009,20.7400006 C336.517267,15.7857117 343.473411,14.2944538 349.22779,17.1399644 C354.982169,19.985475 358.019756,26.4185804 356.560808,32.6700828 C355.101861,38.9215852 349.530495,43.3455722 343.11101,43.3500012 L343.11101,43.3500012 Z" id="Path" fill="#193552"></path>
                <path d="M317.101009,35.088001 L294.729008,35.088001 C294.259566,35.088001 293.879008,34.707443 293.879008,34.238001 C293.888052,33.7723566 294.263364,33.3970451 294.729008,33.3880009 L317.101009,33.3880009 C317.566653,33.3970451 317.941965,33.7723566 317.951009,34.238001 C317.951009,34.707443 317.570451,35.088001 317.101009,35.088001 Z" id="Path" fill="#193552"></path>
                <path d="M343.11101,43.3500012 L321.521009,43.3500012 C321.051567,43.3500012 320.671009,42.9694432 320.671009,42.5000012 C320.680053,42.0343568 321.055365,41.6590453 321.521009,41.6500012 L343.11101,41.6500012 C343.576654,41.6590453 343.951965,42.0343568 343.96101,42.5000012 C343.96101,42.9694432 343.580452,43.3500012 343.11101,43.3500012 Z" id="Path" fill="#193552"></path>
                <path d="M55.8280016,170.323005 C55.4889481,170.324185 55.1816217,170.123755 55.0460015,169.813005 C51.9615478,162.485961 53.4145059,154.034488 58.7688425,148.158222 C64.1231792,142.281956 72.4034657,140.051409 79.9850022,142.443004 C80.288678,142.534107 80.5206833,142.780298 80.5936239,143.08884 C80.6665645,143.397383 80.569359,143.721401 80.3386238,143.938841 C80.1078887,144.15628 79.778678,144.234107 79.4750022,144.143004 C77.6355063,143.546537 75.7137855,143.242503 73.7800021,143.242004 C67.539653,143.27034 61.7246739,146.409672 58.2773063,151.611442 C54.8299387,156.813213 54.2045415,163.391835 56.6100016,169.150005 C56.700318,169.354884 56.7043535,169.587495 56.6211982,169.795383 C56.5380429,170.003272 56.3746988,170.168931 56.1680016,170.255005 C56.0613665,170.303395 55.9450456,170.326659 55.8280016,170.323005 Z" id="Path" fill="#193552"></path>
                <path d="M73.7800021,182.172005 C67.7265231,182.18334 61.9844374,179.489984 58.1230016,174.828005 C57.9757124,174.657972 57.9034552,174.435596 57.9226667,174.211462 C57.9418782,173.987328 58.050925,173.780492 58.2250016,173.638005 C58.588315,173.338713 59.1240665,173.383988 59.4320017,173.740005 C62.9551318,178.040815 68.2203797,180.536193 73.7800021,180.540005 C74.1710021,180.540005 74.5620021,180.540005 74.9530021,180.540005 C75.178536,180.526066 75.4003382,180.602502 75.5694018,180.752427 C75.7384655,180.902351 75.8408746,181.113422 75.8540021,181.339005 C75.8737175,181.805484 75.5204921,182.203802 75.0550021,182.240005 C74.6300021,182.172005 74.2050021,182.172005 73.7800021,182.172005 Z" id="Path" fill="#193552"></path>
                <path d="M81.3620023,180.642005 C80.8925603,180.731199 80.4396963,180.422947 80.3505023,179.953505 C80.2613083,179.484063 80.5695603,179.031199 81.0390023,178.942005 C87.3444168,176.238197 91.662963,170.298669 92.2908153,163.466786 C92.9186675,156.634902 89.7550023,150.007757 84.0480024,146.200004 C83.6601686,145.940599 83.5539422,145.417054 83.8100024,145.027004 C83.9315614,144.836968 84.1249983,144.704361 84.3460819,144.659503 C84.5671656,144.614646 84.7969894,144.661374 84.9830024,144.789004 C91.1978696,148.947771 94.6392168,156.173588 93.9513247,163.619843 C93.2634325,171.066098 88.5565683,177.539176 81.6850023,180.489005 C81.5916538,180.565945 81.4806701,180.618517 81.3620023,180.642005 Z" id="Path" fill="#193552"></path>
                <path d="M52.7000015,169.150005 C52.2407389,169.141348 51.8679334,168.775999 51.8500015,168.317005 C51.5552063,163.387488 54.2312519,158.757929 58.6500016,156.553004 L59.2280017,156.179004 C59.4182186,156.054398 59.6511081,156.012971 59.8726272,156.064338 C60.0941463,156.115705 60.2850367,156.255399 60.4010017,156.451004 C60.6538016,156.845462 60.5397496,157.370101 60.1460017,157.624004 L59.5510017,157.998004 C55.664114,159.909878 53.314634,163.977835 53.6010015,168.300005 C53.6055709,168.523861 53.5198301,168.740131 53.3631143,168.900045 C53.2063985,169.059959 52.9919041,169.150005 52.7680015,169.150005 L52.7000015,169.150005 Z" id="Path" fill="#193552"></path>
                <path d="M58.9050017,167.671005 C58.5083622,167.66658 58.1653097,167.393538 58.0720016,167.008005 C57.4301785,164.87304 56.0581857,163.031681 54.1960015,161.806005 C54.0143275,161.671055 53.895381,161.467994 53.8665214,161.243531 C53.8376618,161.019067 53.9013733,160.792522 54.0430015,160.616005 C54.3346367,160.254461 54.8593949,160.186992 55.2330015,160.463005 C57.4100813,161.914779 59.0053303,164.08793 59.7380017,166.600005 C59.7886372,166.821008 59.7488788,167.053083 59.6275663,167.244629 C59.5062538,167.436175 59.3134425,167.571316 59.0920017,167.620005 L58.9050017,167.671005 Z" id="Path" fill="#193552"></path>
                <path d="M74.1540021,164.900005 C69.7396192,164.964806 65.6305292,162.653848 63.3930018,158.848004 L63.0020018,158.304004 C62.7203366,157.928451 62.7964482,157.39567 63.1720018,157.114004 C63.5475554,156.832339 64.0803366,156.908451 64.3620018,157.284004 L64.7700018,157.845004 C66.9222157,161.638323 71.1540188,163.754225 75.4800021,163.200005 C75.9532322,163.160631 76.3700819,163.509269 76.4150021,163.982005 C76.4359095,164.445901 76.0943226,164.846895 75.6330021,164.900005 L74.1540021,164.900005 Z" id="Path" fill="#193552"></path>
                <path d="M68.2720019,163.404005 C68.1042362,163.40065 67.9402168,163.353787 67.7960019,163.268005 C67.4060071,163.002229 67.3002282,162.473334 67.5580019,162.078005 C68.8710629,159.80813 70.9323813,158.065324 73.3890021,157.148004 C73.8584441,157.011866 74.3493638,157.282062 74.485502,157.751504 C74.6216401,158.220946 74.3514441,158.711866 73.8820021,158.848004 C71.8022659,159.646954 70.0693522,161.151219 68.9860019,163.098005 C68.8079686,163.304713 68.5444687,163.417641 68.2720019,163.404005 L68.2720019,163.404005 Z" id="Path" fill="#193552"></path>
                <path d="M87.1250024,160.378004 C85.8384171,160.359146 84.5569816,160.211069 83.3000023,159.936004 L82.6710023,159.800004 C82.4451479,159.767083 82.242695,159.64293 82.110946,159.456553 C81.9791969,159.270176 81.9296936,159.037904 81.9740023,158.814004 C82.0110408,158.591264 82.1369167,158.393101 82.3227976,158.264908 C82.5086786,158.136714 82.7386378,158.089473 82.9600023,158.134004 L83.6400023,158.253004 C87.8213774,159.511818 92.3482797,158.105989 95.0810027,154.700004 C95.2786714,154.453857 95.5964761,154.337537 95.9063393,154.397921 C96.2162024,154.458306 96.467075,154.685447 96.5578536,154.987806 C96.6486322,155.290164 96.5643613,155.617928 96.3390027,155.839004 C94.1123612,158.667843 90.7248006,160.336623 87.1250024,160.378004 Z" id="Path" fill="#193552"></path>
                <path d="M89.4200025,160.14008 C89.0082177,160.145524 88.6542017,159.849307 88.5870025,159.443004 C87.9759747,156.893973 88.2767053,154.211457 89.4370025,151.861004 C89.5443409,151.66163 89.7282175,151.514544 89.9462967,151.45361 C90.164376,151.392676 90.397864,151.423146 90.5930025,151.538004 C90.9931081,151.774479 91.1355811,152.284383 90.9160026,152.694004 C89.9475145,154.703875 89.7129566,156.98931 90.2530025,159.154004 C90.2973944,159.373382 90.2497253,159.601364 90.121155,159.784576 C89.9925847,159.967789 89.7944017,160.090147 89.5730025,160.123004 L89.4200025,160.14008 Z" id="Path" fill="#193552"></path>
                <path d="M91.0690026,174.369014 L90.8990025,174.369014 C86.0108391,173.553981 82.086218,169.890555 80.9370023,165.070005 L80.7160023,164.424005 C80.6345792,164.212363 80.6429578,163.976674 80.739204,163.771349 C80.8354502,163.566024 81.0112444,163.408811 81.2260023,163.336005 C81.6672685,163.176597 82.154242,163.404866 82.3140023,163.846005 L82.5350023,164.509005 C83.5069364,168.758682 86.954063,171.997503 91.2560026,172.703005 C91.4761323,172.747718 91.6688742,172.879438 91.7905035,173.068284 C91.9121329,173.257129 91.9523396,173.487093 91.9020026,173.706005 C91.8142645,174.095062 91.4678262,174.370799 91.0690026,174.369014 L91.0690026,174.369014 Z" id="Path" fill="#193552"></path>
                <path d="M84.5070024,170.867005 C84.2566242,170.867274 84.0194048,170.754907 83.8610024,170.561005 C83.5617109,170.197691 83.6069857,169.66194 83.9630024,169.354005 C85.877766,167.558246 88.3630991,166.493104 90.9840026,166.345005 C91.4534446,166.345005 91.8340026,166.725563 91.8340026,167.195005 C91.8249584,167.660649 91.4496469,168.035961 90.9840026,168.045005 C88.7457838,168.196067 86.6299995,169.121722 85.0000024,170.663005 C84.8638979,170.785484 84.6898558,170.857502 84.5070024,170.867005 L84.5070024,170.867005 Z" id="Path" fill="#193552"></path>
                <path d="M71.570002,180.200005 L71.570002,180.200005 C71.107137,180.172589 70.7516437,179.779277 70.771002,179.316005 C70.8370485,174.361065 73.8641811,169.927521 78.4550022,168.062005 L79.0500022,167.739005 C79.3172369,167.59324 79.6419363,167.601116 79.9017893,167.759666 C80.1616423,167.918216 80.317171,168.203352 80.3097893,168.507666 C80.3024076,168.811981 80.1332369,169.08924 79.8660022,169.235005 L79.2370022,169.558005 C75.181319,171.153062 72.493759,175.043305 72.437002,179.401005 C72.409698,179.857063 72.0267677,180.209959 71.570002,180.200005 Z" id="Path" fill="#193552"></path>
                <path d="M77.8090022,179.231005 C77.3943469,179.228052 77.0423382,178.92633 76.9760022,178.517005 C76.4751755,176.347623 75.2375285,174.419056 73.4740021,173.060005 C73.3130863,172.900403 73.2225735,172.683147 73.2225735,172.456505 C73.2225735,172.229863 73.3130863,172.012606 73.4740021,171.853005 C73.6282487,171.688654 73.843606,171.595423 74.0690021,171.595423 C74.2943981,171.595423 74.5097554,171.688654 74.6640021,171.853005 C76.7380965,173.459523 78.1772674,175.747745 78.7270022,178.313005 C78.761121,178.53623 78.7050121,178.763856 78.5710577,178.945651 C78.4371033,179.127446 78.2363147,179.248467 78.0130022,179.282005 L77.8090022,179.231005 Z" id="Path" fill="#193552"></path>
                <path d="M61.7780017,180.574005 C61.4684725,180.567817 61.1847354,180.400155 61.0300017,180.132005 C60.9212374,179.933737 60.8959639,179.700301 60.9597733,179.48335 C61.0235826,179.266398 61.1712142,179.083816 61.3700017,178.976005 L61.9990017,178.636005 C66.06683,177.056297 68.7608981,173.156633 68.7990019,168.793005 C68.8075125,168.565737 68.9085757,168.351831 69.0787337,168.200936 C69.2488916,168.050041 69.4733472,167.97528 69.700002,167.994005 C69.9255846,168.007132 70.136656,168.109541 70.2865804,168.278605 C70.4365048,168.447669 70.5129415,168.669471 70.499002,168.895005 C70.4551275,173.874177 67.4154647,178.336375 62.7980018,180.200005 L62.1860017,180.523005 C62.0562248,180.573139 61.9161261,180.590651 61.7780017,180.574005 Z" id="Path" fill="#193552"></path>
                <path d="M67.1500019,176.800005 C66.9431705,176.792953 66.7450715,176.714914 66.5890019,176.579005 C64.5031257,174.93493 63.0691853,172.603271 62.5430018,170.000005 C62.5088829,169.77678 62.5649918,169.549154 62.6989462,169.367359 C62.8329006,169.185563 63.0336893,169.064543 63.2570018,169.031005 C63.719503,168.969503 64.1477367,169.285043 64.2260018,169.745005 C64.6908715,171.903794 65.8930534,173.833296 67.6260019,175.202005 C67.9768097,175.514792 68.0145103,176.05014 67.7110019,176.409005 C67.5840235,176.609316 67.381881,176.750203 67.1500019,176.800005 L67.1500019,176.800005 Z" id="Path" fill="#193552"></path>
                <path d="M67.7960019,154.139004 C67.3265599,154.223504 66.8775014,153.911446 66.7930019,153.442004 C66.7085023,152.972562 67.0205598,152.523504 67.4900019,152.439004 L68.1360019,152.184004 C72.367393,151.145584 75.5432119,147.640072 76.1600021,143.327004 C76.2619545,142.870796 76.7014643,142.572823 77.1630022,142.647004 C77.3862603,142.687742 77.5832318,142.817808 77.7083765,143.007129 C77.8335212,143.196451 77.8760038,143.428636 77.8260022,143.650004 C77.1381314,148.577388 73.5476411,152.604106 68.7310019,153.850004 L68.0850019,154.088004 C67.9926435,154.122701 67.8946578,154.139993 67.7960019,154.139004 L67.7960019,154.139004 Z" id="Path" fill="#193552"></path>
                <path d="M73.6270021,151.028004 C73.3808204,151.025828 73.1466981,150.921089 72.981002,150.739004 C71.1498636,148.860008 70.0316111,146.401055 69.819002,143.786004 C69.8144479,143.560557 69.8996622,143.342539 70.0558896,143.179935 C70.212117,143.017331 70.4265532,142.923468 70.652002,142.919004 C70.882867,142.89316 71.1132715,142.971297 71.2807892,143.132246 C71.448307,143.293194 71.5355945,143.52029 71.519002,143.752004 C71.7337961,145.960971 72.706936,148.027392 74.2730021,149.600004 C74.5722935,149.963318 74.5270188,150.499069 74.1710021,150.807004 C74.0225038,150.944258 73.8291489,151.022808 73.6270021,151.028004 Z" id="Path" fill="#193552"></path>
                <path d="M61.3530017,157.896004 L61.1150017,157.896004 C60.8985851,157.832883 60.7161072,157.686375 60.6077112,157.488712 C60.4993151,157.291049 60.4738802,157.058421 60.5370017,156.842004 L60.7240017,156.162004 C62.3802764,152.161653 61.4607534,147.557327 58.3950016,144.500004 C58.06897,144.163721 58.06897,143.629287 58.3950016,143.293004 C58.5546033,143.132088 58.7718597,143.041575 58.9985017,143.041575 C59.2251436,143.041575 59.4424001,143.132088 59.6020017,143.293004 C63.1084783,146.797955 64.1734943,152.062751 62.3050017,156.655004 L62.1180017,157.301004 C62.0121197,157.639523 61.7071674,157.876708 61.3530017,157.896004 L61.3530017,157.896004 Z" id="Path" fill="#193552"></path>
                <path d="M61.0300017,151.402004 C58.8677388,151.489294 56.7327531,150.89459 54.9270015,149.702004 C54.6779874,149.525872 54.5418541,149.230272 54.5698818,148.926554 C54.5979094,148.622835 54.78584,148.35714 55.0628818,148.229554 C55.3399236,148.101967 55.6639874,148.131872 55.9130016,148.308004 C57.8151417,149.471658 60.0638911,149.934636 62.2710017,149.617004 C62.494846,149.598293 62.7167599,149.670776 62.8864008,149.818012 C63.0560418,149.965247 63.1590299,150.174754 63.1720018,150.399004 C63.1907762,150.624601 63.1187845,150.848367 62.9719868,151.020695 C62.8251891,151.193023 62.6157141,151.299674 62.3900017,151.317004 L61.0300017,151.402004 Z" id="Path" fill="#193552"></path>
                <path d="M79.9850022,155.550004 C79.5810239,155.550004 79.2327979,155.265821 79.1520022,154.870004 C77.9216154,150.075292 79.6749599,145.00933 83.6060023,142.001004 L84.1160024,141.542004 C84.2726805,141.382095 84.4871299,141.291983 84.7110024,141.291983 C84.9348749,141.291983 85.1493243,141.382095 85.3060024,141.542004 C85.4669182,141.701606 85.557431,141.918862 85.557431,142.145504 C85.557431,142.372146 85.4669182,142.589402 85.3060024,142.749004 L84.7960024,143.225004 C81.3014826,145.830935 79.7350734,150.294865 80.8350023,154.513004 C80.880136,154.733934 80.8356334,154.963744 80.7112891,155.151855 C80.5869449,155.339966 80.3929502,155.470959 80.1720022,155.516004 L79.9850022,155.550004 Z" id="Path" fill="#193552"></path>
                <path d="M85.7310024,152.898004 C85.3983332,152.893917 85.0961305,152.703398 84.9490024,152.405004 C83.9131946,150.435183 82.2155259,148.894037 80.1550022,148.053004 C79.7392433,147.840552 79.5663884,147.337018 79.7640022,146.914004 C79.8628825,146.710823 80.0385953,146.555376 80.2523173,146.482009 C80.4660393,146.408642 80.7001785,146.423393 80.9030023,146.523004 C83.3035429,147.527763 85.2846838,149.328801 86.5130024,151.623004 C86.6039286,151.830318 86.6084012,152.065337 86.5254285,152.27596 C86.4424559,152.486583 86.2788935,152.655407 86.0710024,152.745004 C85.9720216,152.823264 85.8552195,152.875825 85.7310024,152.898004 L85.7310024,152.898004 Z" id="Path" fill="#193552"></path>
            </g>
        </g>
    </g>
</svg>