<?xml version="1.0" standalone="no"?>
<!DOCTYPE svg PUBLIC "-//W3C//DTD SVG 20010904//EN"
 "http://www.w3.org/TR/2001/REC-SVG-20010904/DTD/svg10.dtd">
<svg version="1.0" xmlns="http://www.w3.org/2000/svg"
 width="77.000000pt" height="70.000000pt" viewBox="0 0 77.000000 70.000000"
 preserveAspectRatio="xMidYMid meet">

<g transform="translate(0.000000,70.000000) scale(0.100000,-0.100000)"
fill="#000000" stroke="none">
<path d="M309 527 c-114 -61 -145 -219 -62 -318 22 -26 71 -59 88 -59 3 0 5
67 5 148 0 142 1 149 23 170 14 13 36 22 55 22 29 0 32 3 32 30 0 29 -1 30
-48 30 -32 0 -64 -8 -93 -23z"/>
<path d="M476 531 c-3 -4 -5 -72 -5 -150 2 -161 -6 -181 -67 -181 -35 0 -50
-22 -38 -55 6 -14 15 -16 55 -12 84 10 145 53 179 128 39 87 17 176 -60 242
-45 38 -55 43 -64 28z"/>
</g>
</svg>
