<?xml version="1.0" standalone="no"?>
<!DOCTYPE svg PUBLIC "-//W3C//DTD SVG 20010904//EN"
 "http://www.w3.org/TR/2001/REC-SVG-20010904/DTD/svg10.dtd">
<svg version="1.0" xmlns="http://www.w3.org/2000/svg"
 width="752.000000pt" height="752.000000pt" viewBox="0 0 752.000000 752.000000"
 preserveAspectRatio="xMidYMid meet">

<g transform="translate(0.000000,752.000000) scale(0.100000,-0.100000)"
fill="#ffffff" stroke="none">
<path d="M3731 5869 c-50 -54 -115 -289 -265 -969 -115 -518 -146 -630 -181
-665 -35 -35 -147 -66 -665 -181 -523 -116 -737 -169 -864 -215 -75 -27 -126
-58 -126 -77 1 -55 224 -126 770 -247 752 -165 846 -190 885 -230 35 -35 66
-147 181 -665 116 -523 169 -737 215 -864 27 -75 58 -126 77 -126 55 1 126
224 247 770 165 752 190 846 230 885 35 36 146 66 707 190 728 162 947 228
948 287 0 19 -51 50 -126 77 -128 47 -344 100 -864 215 -518 115 -630 145
-665 181 -36 35 -66 146 -191 710 -163 731 -227 944 -286 945 -4 0 -16 -10
-27 -21z"/>
</g>
</svg>
